<svg id="Layer_1" data-name="Layer 1" xmlns="http://www.w3.org/2000/svg" width="165px" height="50px" viewBox="0 0 877.72 188.86"><defs><style>.cls-1{fill:#e76453;}.cls-2{fill:#fff;}.cls-3{fill:#222;}</style></defs><path class="cls-1" d="M12.21,7.53H49.85c.33.06,1.27,1.61,2.8,4.64S56.3,19.69,59,25.61s5.4,11.86,8.11,17.79,6,13.24,9.8,21.93,7,15.84,9.41,21.44,5.46,12.51,9.06,20.73,5.87,13.44,6.81,15.64q11.8-28.76,30.88-72T153.75,7.63a6.94,6.94,0,0,1,1.2-.1h15.12q13.91,0,20.82,0,4.29,3,4.3,16.15,0,2.31-3.3,3.46A24,24,0,0,1,184,28.25q-3.9,0-5.11,1.65a7.8,7.8,0,0,0-1.2,4.65V131a7.8,7.8,0,0,0,1.2,4.65q1.22,1.65,5.11,1.65a23.22,23.22,0,0,1,7.91,1.2q3.3,1.22,3.3,3.61a36.69,36.69,0,0,1-1.3,9.76q-1.3,4.76-4,6.35-13.42-1.09-22.93-1.1-10.9,0-25.22,1.1c-1.47-1-2.55-3.17-3.25-6.34a44.84,44.84,0,0,1-1.06-9.82c0-1.58,1.11-2.77,3.31-3.57a23.44,23.44,0,0,1,7.91-1.19,10,10,0,0,0,3.6-.55,3.45,3.45,0,0,0,1.95-1.65,7.14,7.14,0,0,0,.7-2,14.29,14.29,0,0,0,.15-2.35V42.56q0-.11-4.7,10.81T138.94,79.9q-6.72,15.61-13.42,31.23t-11.41,26.52l-4.7,10.81c0,.14-.54.62-1.6,1.46a24.61,24.61,0,0,1-4.31,2.55,11.43,11.43,0,0,1-4.9,1.3q-5.2,0-8.71-7.71-1.31-2.77-6.56-14.75T71.67,104.77L59,75.89Q52.65,61.58,48.4,52t-4.26-9.46v88.19a14.29,14.29,0,0,0,.15,2.35,7.49,7.49,0,0,0,.7,2,3.44,3.44,0,0,0,2,1.65,9.87,9.87,0,0,0,3.6.55,23.52,23.52,0,0,1,7.91,1.19q3.3,1.2,3.3,3.57a45.46,45.46,0,0,1-1,9.82c-.7,3.17-1.79,5.29-3.25,6.34q-12.32-1.09-22.33-1.1-9.51,0-22.92,1.1c-1.8-1-3.14-3.17-4-6.34A37,37,0,0,1,6.91,142q0-2.37,3.3-3.57a23.48,23.48,0,0,1,7.91-1.19c2.6,0,4.3-.54,5.1-1.64a7.7,7.7,0,0,0,1.2-4.62V34.91a7.7,7.7,0,0,0-1.2-4.62c-.8-1.1-2.5-1.64-5.1-1.64q-11.22,0-11.21-5.21a36.33,36.33,0,0,1,1.3-9.66C9.07,10.61,10.41,8.53,12.21,7.53Z" transform="translate(-6.91 -6.53)"/><path class="cls-1" d="M214.91,7.63h103.7q1.69,1.5,6.26,20.47t4.55,22.68a4.23,4.23,0,0,1-.75,1.95,13.11,13.11,0,0,1-2.3,2.71,12.43,12.43,0,0,1-4.51,2.46,20.88,20.88,0,0,1-6.75,1q-1.5,0-3.41-6.55t-3.8-15.2q-1.9-8.66-2.7-10.91H253.65a2.65,2.65,0,0,0-2.3,1.13,5,5,0,0,0-1,2.3,26,26,0,0,0-.15,3.13V71.39a101.15,101.15,0,0,1,14.37-3.6,85.46,85.46,0,0,1,15.66-1.61q6,0,9.61,3.06T293.49,79a13,13,0,0,1-12.92,13.11Q273.37,83,260,83a82.93,82.93,0,0,0-9.71.7V134a25.84,25.84,0,0,0,.15,3.16,4.82,4.82,0,0,0,1,2.25,2.66,2.66,0,0,0,2.3,1.11H309.2a123.52,123.52,0,0,0,3.51-12q2.49-9.55,5-16.76t4.4-7.2a21.23,21.23,0,0,1,6.76,1,12.42,12.42,0,0,1,4.51,2.43,13,13,0,0,1,2.3,2.68,4.18,4.18,0,0,1,.75,1.93q0,4.06-5.46,24.44T323.62,159H214.91c-1.8-1-3.14-3.11-4-6.23a35.8,35.8,0,0,1-1.31-9.66c0-1.56,1.11-2.73,3.31-3.51a24,24,0,0,1,7.91-1.17q3.9,0,5.1-1.66a8,8,0,0,0,1.2-4.7V34.46a8,8,0,0,0-1.2-4.7q-1.2-1.67-5.1-1.66-11.22,0-11.22-5.05a34.17,34.17,0,0,1,1.31-9.36C211.77,10.62,213.11,8.6,214.91,7.63Z" transform="translate(-6.91 -6.53)"/><path class="cls-1" d="M480.37,110.6l.1,42a11.21,11.21,0,0,1-8.11,3.6,10.41,10.41,0,0,1-2.25-.25,12.9,12.9,0,0,1-2.45-.8l-2.11-.9c-.53-.23-1.31-.63-2.35-1.2s-1.68-.92-1.95-1.05a117.14,117.14,0,0,1-21,6.15,111.91,111.91,0,0,1-22.47,2.46,85.07,85.07,0,0,1-27.63-4.31,67.11,67.11,0,0,1-21.42-11.61,71.91,71.91,0,0,1-15-17.07,74.2,74.2,0,0,1-9.05-20.67,87,87,0,0,1-2.91-22.52,88,88,0,0,1,5.11-29.93,79.45,79.45,0,0,1,14.11-24.82,65.36,65.36,0,0,1,22.32-16.87A66.72,66.72,0,0,1,412.1,6.53a77.19,77.19,0,0,1,25,4.35q12.75,4.35,20.17,12.86,0-15,3.9-15h11.21q4.8,0,4.81,10.41V43.86a46,46,0,0,1-.55,8.36q-.56,2.66-1.41,3.3a5.65,5.65,0,0,1-2.85.85h-8.31c-.53,0-1.48-.76-2.85-2.3s-2.95-3.45-4.75-5.75a66.92,66.92,0,0,0-7.06-7.51,87.24,87.24,0,0,0-9.26-7.51,45,45,0,0,0-11.86-5.75,45.62,45.62,0,0,0-14.47-2.31,43.55,43.55,0,0,0-17.21,3.36,40.41,40.41,0,0,0-13.42,9,56.08,56.08,0,0,0-9.46,13.21,64.06,64.06,0,0,0-5.8,16A79.54,79.54,0,0,0,366.06,84a62.22,62.22,0,0,0,2.15,16.37,54.39,54.39,0,0,0,6.66,15.06,53.78,53.78,0,0,0,10.86,12.46A48.35,48.35,0,0,0,401,136.4a58.29,58.29,0,0,0,19.47,3.16A155,155,0,0,0,458.25,135V114.31a28.48,28.48,0,0,0-.5-5.76,15.65,15.65,0,0,0-2-4.76,8.75,8.75,0,0,0-4.7-3.6A23.57,23.57,0,0,0,442.93,99a2.48,2.48,0,0,1-2.55-1.7,19.26,19.26,0,0,1-.65-6.11,22.31,22.31,0,0,1,3.3-12q12.92.85,25.43.85h10.11a63.09,63.09,0,0,0,8.2-.43c2.14-.28,3.44-.42,3.91-.42a9.12,9.12,0,0,1,1.55,3.76,21.63,21.63,0,0,1,.75,5.25,12.29,12.29,0,0,1-1.3,6.16,8.26,8.26,0,0,1-3.15,3.26c-1.24.67-2.47,1.37-3.71,2.1a8.67,8.67,0,0,0-3.15,3.76A16.42,16.42,0,0,0,480.37,110.6Z" transform="translate(-6.91 -6.53)"/><path class="cls-1" d="M572.26,9.88q12.51,0,17-.4v.4a112.84,112.84,0,0,0,3.65,14.31q3,10.11,4.05,12.4l37,96.46a12.61,12.61,0,0,0,3,4.66c1.2,1.1,3.11,1.65,5.71,1.65a16.4,16.4,0,0,1,6.4,1.21,5.71,5.71,0,0,1,3.61,3.64q-.4,6.4-.4,10.31t-1.71,4.9q-15-1.09-25.22-1.1-20.42,0-27.93,1.1-1.69-5.8-1.7-16,0-2.4,3.55-3.1t7.11-1.2c2.37-.34,3.55-1.17,3.55-2.51a10.68,10.68,0,0,0-.9-3.71l-9.51-26.95H547l-9.11,27a14.69,14.69,0,0,0-.9,3.71q0,2,3.61,2.51c2.4.33,4.8.74,7.2,1.2s3.61,1.51,3.61,3.11q-1.2,12.38-2.71,15.46H498.39q-1.71-1.06-1.71-4.78t.61-10.05a5.56,5.56,0,0,1,3.5-3.51,16.22,16.22,0,0,1,6.3-1.17q3.92,0,5.71-1.65a12.43,12.43,0,0,0,3-4.64l37-98.15a10.91,10.91,0,0,0,.8-3.29,2.61,2.61,0,0,0-2.1-2.65,12.15,12.15,0,0,0-4.56-.45,9.71,9.71,0,0,1-4.55-.65,3,3,0,0,1-2.1-3,5.5,5.5,0,0,1,.2-1q1.4-11.16,3.5-14Zm1.3,23.58Q563,58.69,552.24,90.71h42q-4.8-14.29-10-28.58t-8-21.48Z" transform="translate(-6.91 -6.53)"/><path class="cls-2" d="M582.89,189.56s.38-83,36.9-104.85S657,145.41,657,145.41L650,184.94Z" transform="translate(-6.91 -6.53)"/><path class="cls-3" d="M599.28,190.59a8.21,8.21,0,0,1,.16-4.07,21.65,21.65,0,0,1,1.91-5,26,26,0,0,1,3-4.44,7.09,7.09,0,0,1,3.31-2.47c1.37-.4,2.3-.21,2.79.58a7.68,7.68,0,0,1,1,2.78c.2,1.06.42,2,.67,2.88s.89,1.14,1.93.84a11.68,11.68,0,0,0,7-6.05,34.74,34.74,0,0,0,3.69-11.36,62.05,62.05,0,0,0,.53-14.19,69,69,0,0,0-2.52-14.43,34.12,34.12,0,0,0-4-9.3,39.09,39.09,0,0,0-4.5-5.68q-2,6.08-5.53,15t-9,22.51l-3.18-1.32q5.21-12.92,8.85-22.31t6.11-16.71c-.56-.65-1.06-1.27-1.49-1.86a6,6,0,0,1-.95-1.9,10.92,10.92,0,0,1-.08-5.29,19.58,19.58,0,0,1,2.07-5.58,18.78,18.78,0,0,1,3.62-4.69,11.15,11.15,0,0,1,4.52-2.71,6.65,6.65,0,0,1,2.88-.11c1.09.17,1.85,1,2.27,2.42a4.49,4.49,0,0,1-.15,2.17c-.25,1-.53,2-.85,3s-.61,2.08-.85,3a4.4,4.4,0,0,0-.16,2.17,9.64,9.64,0,0,0,1.45,2.49q1.22,1.66,2.83,4.33c1.07,1.77,2.2,3.85,3.37,6.23a51.18,51.18,0,0,1,5,20.14,64.76,64.76,0,0,1-3.67,23.94,61.9,61.9,0,0,1-4.87,10.59,104.77,104.77,0,0,0,13-16.19,131.44,131.44,0,0,0,12.07-23.53l3.18,1.32a127,127,0,0,1-18.74,32.51,93,93,0,0,1-10.82,11.48,75.43,75.43,0,0,1-11,8.17,27.82,27.82,0,0,1-3.23,1.77,23.36,23.36,0,0,1-3.39,1.27,20.38,20.38,0,0,1-2.41.53,7.31,7.31,0,0,1-2.47,0,4.56,4.56,0,0,1-2-.91A4.15,4.15,0,0,1,599.28,190.59Z" transform="translate(-6.91 -6.53)"/><path class="cls-3" d="M674.52,146.93a4.36,4.36,0,0,0,.08,1.43c.2.69.58.95,1.13.79.76-.22,1.38-1.14,1.88-2.78L689.85,108q1.86-5.89,3.49-10.13a46.71,46.71,0,0,1,3.32-7.06,18.18,18.18,0,0,1,3.52-4.43,10.8,10.8,0,0,1,4.1-2.25,10.19,10.19,0,0,1,6.43-.19,5.52,5.52,0,0,1,3.38,3.94,14.36,14.36,0,0,1,.55,3.81c0,1.37,0,2.59-.06,3.65l-5.18,49.16c-.08.77-.12,1.51-.14,2.22a5.87,5.87,0,0,0,.18,1.79c.24.83.59,1.32,1,1.49a2.64,2.64,0,0,0,1.62,0,6.76,6.76,0,0,0,3.08-2.47,23.41,23.41,0,0,0,3.11-5.48l12.11-28.8,3.17,1.31L719,149.35a53,53,0,0,1-3.14,6.5,26.61,26.61,0,0,1-3.13,4.44,15.08,15.08,0,0,1-3.32,2.81,15.79,15.79,0,0,1-3.72,1.64,7.87,7.87,0,0,1-5.68-.31,6.07,6.07,0,0,1-3.4-4A19.41,19.41,0,0,1,696,154c.15-2.58.45-5.76.92-9.55l5.23-44.36a4,4,0,0,0-.14-1.64A1.85,1.85,0,0,0,699.49,97a4,4,0,0,0-1.65,1,6.2,6.2,0,0,0-1.41,2.64l-19.36,60.44a43.12,43.12,0,0,1-4.6,10.56,9.75,9.75,0,0,1-5.2,4.25q-4.74,1.38-6.06-3.16a19.86,19.86,0,0,1-.52-6.22q.16-3.85.79-9.41l6.17-54.25q-.9,3.06-2.16,6.83c-.83,2.52-1.86,5.41-3.07,8.67s-2.63,6.92-4.25,11-3.5,8.58-5.62,13.6l-3.18-1.32q4.5-10.69,7.68-19t5.4-14.93q2.2-6.63,3.55-11.83c.9-3.46,1.66-6.69,2.28-9.66s1.19-5.81,1.68-8.49l1.51-8.27,3.71-32.29,12.49-3.62L674.56,145.91A9.59,9.59,0,0,0,674.52,146.93Z" transform="translate(-6.91 -6.53)"/><path class="cls-3" d="M801.75,96.22a82.51,82.51,0,0,1-4.12,8.92,39.65,39.65,0,0,1-4.3,6.39,24.52,24.52,0,0,1-9.56,7.14,70.53,70.53,0,0,1-4.39,10.5,55.35,55.35,0,0,1-5.93,9.22,39.7,39.7,0,0,1-7.47,7.2,28.22,28.22,0,0,1-8.9,4.43,22.79,22.79,0,0,1-7.8.87,19.3,19.3,0,0,1-7.59-2,19.78,19.78,0,0,1-6.45-5.28,24.53,24.53,0,0,1-4.42-8.84A50.1,50.1,0,0,1,729,117.29a61.36,61.36,0,0,1,3.9-17.75,68.87,68.87,0,0,1,23.16-30.43l1.34,1.17A93.65,93.65,0,0,0,748,89a100.46,100.46,0,0,0-4.87,18.48,84.55,84.55,0,0,0-1.07,16.92,59.78,59.78,0,0,0,2.12,14,17.84,17.84,0,0,0,1.5,3.64,10.59,10.59,0,0,0,2.22,2.82,7.65,7.65,0,0,0,2.76,1.61,5.56,5.56,0,0,0,3.23,0,10.77,10.77,0,0,0,4.56-3,32.89,32.89,0,0,0,4.41-5.81,60.3,60.3,0,0,0,4-7.93q1.89-4.47,3.48-9.4A16.23,16.23,0,0,1,761,114.7a28.22,28.22,0,0,1-5.33-10.25,31.29,31.29,0,0,1-1.14-11.25,37.25,37.25,0,0,1,2.37-10.7,29,29,0,0,1,4.94-8.42,13.78,13.78,0,0,1,6.52-4.53,11.83,11.83,0,0,1,4.26-.34,11.3,11.3,0,0,1,4.83,1.62,16.17,16.17,0,0,1,4.63,4.36,24.79,24.79,0,0,1,3.63,7.89,47.71,47.71,0,0,1,1.69,14.67,77.73,77.73,0,0,1-2.29,16.38,17.33,17.33,0,0,0,3.37-2.43,23.63,23.63,0,0,0,3.28-3.75,44.21,44.21,0,0,0,3.32-5.5q1.7-3.23,3.53-7.68ZM759.43,103a25.1,25.1,0,0,0,4.62,9.17,13.07,13.07,0,0,0,7.42,4.56q1.5-5.25,2.49-10.68a105.41,105.41,0,0,0,1.42-10.53,78.6,78.6,0,0,0,.24-9.58,33.79,33.79,0,0,0-1.14-7.78,6.32,6.32,0,0,0-1.3-2.53,4.53,4.53,0,0,0-1.75-1.23,4.93,4.93,0,0,0-1.88-.29,6.79,6.79,0,0,0-1.55.23,8.54,8.54,0,0,0-4.06,3.36,25.83,25.83,0,0,0-3.55,6.84,35.93,35.93,0,0,0-1.88,8.94A25.66,25.66,0,0,0,759.43,103Z" transform="translate(-6.91 -6.53)"/><path class="cls-3" d="M884.63,71.14a110.78,110.78,0,0,1-14,25,101.68,101.68,0,0,1-15.71,16.59,87.48,87.48,0,0,1-15.58,10.45q-7.61,3.89-13.55,6.51l-.54-1.86a59.23,59.23,0,0,0,11-10.36,80.08,80.08,0,0,0,8.35-12.27,87.79,87.79,0,0,0,5.85-13A85.85,85.85,0,0,0,854,79.55a64.08,64.08,0,0,0,1.16-11.19,30.78,30.78,0,0,0-1-8.51,8.93,8.93,0,0,0-1.63-3.27,2,2,0,0,0-2.16-.89q-1.54.45-3.59,3.62a75.48,75.48,0,0,0-4.47,8.29q-2.43,5.13-5,11.69t-5.17,13.8q-2.6,7.25-5,14.7T822.89,122q-1.95,6.77-3.35,12.55t-2,9.63c-.48,3.19-1,6.63-1.42,10.31s-.91,7.38-1.35,11.13-.85,7.41-1.23,11-.75,6.91-1.12,10l-13.23,8.76q.53-4,1.1-8.54t1.15-9.34q.57-4.75,1.13-9.56t1.08-9.2q1.15-10.31,2.4-20.61l8.83-77.07c-.55,2-1.25,4.13-2.07,6.53s-1.84,5.18-3,8.32-2.55,6.73-4.14,10.76-3.46,8.62-5.63,13.72l-3.18-1.31q4.11-9.7,7-17.15t5-13.15c1.39-3.79,2.56-7.11,3.48-10s1.7-5.45,2.32-7.83,1.14-4.58,1.6-6.61.88-4.16,1.28-6.36l.63-5.55,12.58-3.66-8.23,71.41a4.57,4.57,0,0,0,.1,1.87c.2.69.54,1,1,.83s1-.8,1.44-2L826.53,97l2.58-7.29q1.51-4.24,3.34-9.14T836.09,71q1.81-4.73,3.55-8.75c1.16-2.69,2.2-4.87,3.13-6.56a104.89,104.89,0,0,1,6.46-10.49,13,13,0,0,1,6.87-5.24,8.28,8.28,0,0,1,2.9-.23,7.85,7.85,0,0,1,3.35,1.15A11.66,11.66,0,0,1,865.61,44a18.12,18.12,0,0,1,2.62,5.73,39.72,39.72,0,0,1,1,15.76,75.8,75.8,0,0,1-4.46,17.79,102.57,102.57,0,0,1-8.69,17.63,93.62,93.62,0,0,1-11.7,15.37,92.82,92.82,0,0,0,7.91-5.88,88.45,88.45,0,0,0,9.82-9.51,112.85,112.85,0,0,0,10.21-13.37,98.55,98.55,0,0,0,9.13-17.69Z" transform="translate(-6.91 -6.53)"/></svg>